{
  "schema_version": "1.0.0",
  "generated_at": "deterministic-no-wall-clock",
  "generator": {
    "path": "scripts/media-fixtures.ts",
    "sha256": "82c9dbdd56e78f7fb614d21a452954eeb803a773822bc0520e9cfc8328c7420c",
    "ffmpeg": "ffmpeg version 8.1.2 Copyright (c) 2000-2026 the FFmpeg developers",
    "ffprobe": "ffprobe version 8.1.2 Copyright (c) 2007-2026 the FFmpeg developers"
  },
  "license": "repo-authored synthetic; redistributable with Vean",
  "parity_document": {
    "relative_path": "lower-third-parity.mlt",
    "sha256": "a13b47a0562ba3e323c74ed1437e8178ae36bbe78ffd88855a17ba4fafced049",
    "composition_id": "LowerThird",
    "clip_start_frame": 30,
    "duration_frames": 90
  },
  "entries": [
    {
      "id": "h264-high-yuv420p-cfr-30000-1001-aac-mp4",
      "file": "source-h264-aac.mp4",
      "argv": [
        "ffmpeg",
        "-hide_banner",
        "-loglevel",
        "error",
        "-y",
        "-f",
        "lavfi",
        "-i",
        "testsrc2=size=320x180:rate=30000/1001:duration=2",
        "-f",
        "lavfi",
        "-i",
        "sine=frequency=440:sample_rate=48000:duration=2",
        "-c:v",
        "libx264",
        "-profile:v",
        "high",
        "-pix_fmt",
        "yuv420p",
        "-g",
        "30",
        "-c:a",
        "aac",
        "-b:a",
        "128k",
        "-movflags",
        "+faststart",
        "-shortest"
      ],
      "license": "repo-authored synthetic CC0-1.0",
      "relative_path": "assets/source-h264-aac.mp4",
      "source_sha256": "5a171ed1c47feb001c619cd5bc9783c1c4dd1924b28512011514e82ee2e9e76e",
      "byte_length": 97248,
      "container_and_stream_metadata": {
        "streams": [
          {
            "index": 0,
            "codec_name": "h264",
            "codec_long_name": "H.264 / AVC / MPEG-4 AVC / MPEG-4 part 10",
            "profile": "High",
            "codec_type": "video",
            "codec_tag_string": "avc1",
            "codec_tag": "0x31637661",
            "mime_codec_string": "avc1.64000d",
            "width": 320,
            "height": 180,
            "coded_width": 320,
            "coded_height": 180,
            "has_b_frames": 2,
            "sample_aspect_ratio": "1:1",
            "display_aspect_ratio": "16:9",
            "pix_fmt": "yuv420p",
            "level": 13,
            "chroma_location": "left",
            "field_order": "progressive",
            "is_avc": "true",
            "nal_length_size": "4",
            "id": "0x1",
            "r_frame_rate": "30000/1001",
            "avg_frame_rate": "30000/1001",
            "time_base": "1/30000",
            "start_pts": 0,
            "start_time": "0.000000",
            "duration_ts": 59059,
            "duration": "1.968633",
            "bit_rate": "254003",
            "bits_per_raw_sample": "8",
            "nb_frames": "59",
            "extradata_size": 45,
            "disposition": {
              "default": 1,
              "dub": 0,
              "original": 0,
              "comment": 0,
              "lyrics": 0,
              "karaoke": 0,
              "forced": 0,
              "hearing_impaired": 0,
              "visual_impaired": 0,
              "clean_effects": 0,
              "attached_pic": 0,
              "timed_thumbnails": 0,
              "non_diegetic": 0,
              "captions": 0,
              "descriptions": 0,
              "metadata": 0,
              "dependent": 0,
              "still_image": 0,
              "multilayer": 0
            },
            "tags": {
              "language": "und",
              "handler_name": "VideoHandler",
              "encoder": "Lavc62.28.102 libx264"
            }
          },
          {
            "index": 1,
            "codec_name": "aac",
            "codec_long_name": "AAC (Advanced Audio Coding)",
            "profile": "LC",
            "codec_type": "audio",
            "codec_tag_string": "mp4a",
            "codec_tag": "0x6134706d",
            "mime_codec_string": "mp4a.40.2",
            "sample_fmt": "fltp",
            "sample_rate": "48000",
            "channels": 1,
            "channel_layout": "mono",
            "bits_per_sample": 0,
            "initial_padding": 0,
            "id": "0x2",
            "r_frame_rate": "0/0",
            "avg_frame_rate": "0/0",
            "time_base": "1/48000",
            "start_pts": 0,
            "start_time": "0.000000",
            "duration_ts": 96000,
            "duration": "2.000000",
            "bit_rate": "123292",
            "nb_frames": "95",
            "extradata_size": 5,
            "disposition": {
              "default": 1,
              "dub": 0,
              "original": 0,
              "comment": 0,
              "lyrics": 0,
              "karaoke": 0,
              "forced": 0,
              "hearing_impaired": 0,
              "visual_impaired": 0,
              "clean_effects": 0,
              "attached_pic": 0,
              "timed_thumbnails": 0,
              "non_diegetic": 0,
              "captions": 0,
              "descriptions": 0,
              "metadata": 0,
              "dependent": 0,
              "still_image": 0,
              "multilayer": 0
            },
            "tags": {
              "language": "und",
              "handler_name": "SoundHandler"
            }
          }
        ],
        "format": {
          "filename": "assets/source-h264-aac.mp4",
          "nb_streams": 2,
          "nb_programs": 0,
          "nb_stream_groups": 0,
          "format_name": "mov,mp4,m4a,3gp,3g2,mj2",
          "format_long_name": "QuickTime / MOV",
          "start_time": "0.000000",
          "duration": "2.000000",
          "size": "97248",
          "bit_rate": "388992",
          "probe_score": 100,
          "tags": {
            "major_brand": "isom",
            "minor_version": "512",
            "compatible_brands": "isomiso2avc1mp41",
            "encoder": "Lavf62.12.102"
          }
        }
      }
    },
    {
      "id": "hevc-main10-vfr-aac-mov",
      "file": "source-hevc-main10.mov",
      "argv": [
        "ffmpeg",
        "-hide_banner",
        "-loglevel",
        "error",
        "-y",
        "-f",
        "lavfi",
        "-i",
        "testsrc2=size=320x180:rate=24:duration=2",
        "-f",
        "lavfi",
        "-i",
        "sine=frequency=550:sample_rate=48000:duration=2",
        "-c:v",
        "libx265",
        "-profile:v",
        "main10",
        "-pix_fmt",
        "yuv420p10le",
        "-x265-params",
        "log-level=error",
        "-c:a",
        "aac",
        "-shortest"
      ],
      "license": "repo-authored synthetic CC0-1.0",
      "relative_path": "assets/source-hevc-main10.mov",
      "source_sha256": "c593161649f2861d124ec9c339de1d5490b41aa1a9eeca2122e6e3217334f204",
      "byte_length": 64777,
      "container_and_stream_metadata": {
        "streams": [
          {
            "index": 0,
            "codec_name": "hevc",
            "codec_long_name": "H.265 / HEVC (High Efficiency Video Coding)",
            "profile": "Main 10",
            "codec_type": "video",
            "codec_tag_string": "hev1",
            "codec_tag": "0x31766568",
            "width": 320,
            "height": 180,
            "coded_width": 320,
            "coded_height": 184,
            "has_b_frames": 2,
            "sample_aspect_ratio": "1:1",
            "display_aspect_ratio": "16:9",
            "pix_fmt": "yuv420p10le",
            "level": 60,
            "color_range": "tv",
            "chroma_location": "left",
            "field_order": "progressive",
            "view_ids_available": "",
            "view_pos_available": "",
            "id": "0x1",
            "r_frame_rate": "24/1",
            "avg_frame_rate": "24/1",
            "time_base": "1/12288",
            "start_pts": 0,
            "start_time": "0.000000",
            "duration_ts": 24576,
            "duration": "2.000000",
            "bit_rate": "167240",
            "nb_frames": "48",
            "extradata_size": 2421,
            "disposition": {
              "default": 1,
              "dub": 0,
              "original": 0,
              "comment": 0,
              "lyrics": 0,
              "karaoke": 0,
              "forced": 0,
              "hearing_impaired": 0,
              "visual_impaired": 0,
              "clean_effects": 0,
              "attached_pic": 0,
              "timed_thumbnails": 0,
              "non_diegetic": 0,
              "captions": 0,
              "descriptions": 0,
              "metadata": 0,
              "dependent": 0,
              "still_image": 0,
              "multilayer": 0
            },
            "tags": {
              "handler_name": "VideoHandler",
              "vendor_id": "FFMP",
              "encoder": "Lavc62.28.102 libx265"
            }
          },
          {
            "index": 1,
            "codec_name": "aac",
            "codec_long_name": "AAC (Advanced Audio Coding)",
            "profile": "LC",
            "codec_type": "audio",
            "codec_tag_string": "mp4a",
            "codec_tag": "0x6134706d",
            "mime_codec_string": "mp4a.40.2",
            "sample_fmt": "fltp",
            "sample_rate": "48000",
            "channels": 1,
            "channel_layout": "mono",
            "bits_per_sample": 0,
            "initial_padding": 0,
            "id": "0x2",
            "r_frame_rate": "0/0",
            "avg_frame_rate": "0/0",
            "time_base": "1/48000",
            "start_pts": 0,
            "start_time": "0.000000",
            "duration_ts": 96000,
            "duration": "2.000000",
            "bit_rate": "69858",
            "nb_frames": "95",
            "extradata_size": 5,
            "disposition": {
              "default": 1,
              "dub": 0,
              "original": 0,
              "comment": 0,
              "lyrics": 0,
              "karaoke": 0,
              "forced": 0,
              "hearing_impaired": 0,
              "visual_impaired": 0,
              "clean_effects": 0,
              "attached_pic": 0,
              "timed_thumbnails": 0,
              "non_diegetic": 0,
              "captions": 0,
              "descriptions": 0,
              "metadata": 0,
              "dependent": 0,
              "still_image": 0,
              "multilayer": 0
            },
            "tags": {
              "handler_name": "SoundHandler",
              "vendor_id": "[0][0][0][0]"
            }
          }
        ],
        "format": {
          "filename": "assets/source-hevc-main10.mov",
          "nb_streams": 2,
          "nb_programs": 0,
          "nb_stream_groups": 0,
          "format_name": "mov,mp4,m4a,3gp,3g2,mj2",
          "format_long_name": "QuickTime / MOV",
          "start_time": "0.000000",
          "duration": "2.000000",
          "size": "64777",
          "bit_rate": "259108",
          "probe_score": 100,
          "tags": {
            "major_brand": "qt  ",
            "minor_version": "512",
            "compatible_brands": "qt  ",
            "encoder": "Lavf62.12.102"
          }
        }
      }
    },
    {
      "id": "prores422hq-pcm-mov",
      "file": "source-prores422.mov",
      "argv": [
        "ffmpeg",
        "-hide_banner",
        "-loglevel",
        "error",
        "-y",
        "-f",
        "lavfi",
        "-i",
        "testsrc2=size=320x180:rate=30:duration=1",
        "-f",
        "lavfi",
        "-i",
        "sine=frequency=660:sample_rate=48000:duration=1",
        "-c:v",
        "prores_ks",
        "-profile:v",
        "3",
        "-pix_fmt",
        "yuv422p10le",
        "-c:a",
        "pcm_s16le",
        "-shortest"
      ],
      "license": "repo-authored synthetic CC0-1.0",
      "relative_path": "assets/source-prores422.mov",
      "source_sha256": "21c229f08217e7217cc8985136acca71c1e21cd71fb1637340545ca6987f1251",
      "byte_length": 1025901,
      "container_and_stream_metadata": {
        "streams": [
          {
            "index": 0,
            "codec_name": "prores",
            "codec_long_name": "Apple ProRes (iCodec Pro)",
            "profile": "HQ",
            "codec_type": "video",
            "codec_tag_string": "apch",
            "codec_tag": "0x68637061",
            "width": 320,
            "height": 180,
            "coded_width": 320,
            "coded_height": 180,
            "has_b_frames": 0,
            "sample_aspect_ratio": "1:1",
            "display_aspect_ratio": "16:9",
            "pix_fmt": "yuv422p10le",
            "level": -99,
            "color_range": "tv",
            "field_order": "progressive",
            "id": "0x1",
            "r_frame_rate": "30/1",
            "avg_frame_rate": "30/1",
            "time_base": "1/15360",
            "start_pts": 0,
            "start_time": "0.000000",
            "duration_ts": 15360,
            "duration": "1.000000",
            "bit_rate": "7424048",
            "bits_per_raw_sample": "10",
            "nb_frames": "30",
            "disposition": {
              "default": 1,
              "dub": 0,
              "original": 0,
              "comment": 0,
              "lyrics": 0,
              "karaoke": 0,
              "forced": 0,
              "hearing_impaired": 0,
              "visual_impaired": 0,
              "clean_effects": 0,
              "attached_pic": 0,
              "timed_thumbnails": 0,
              "non_diegetic": 0,
              "captions": 0,
              "descriptions": 0,
              "metadata": 0,
              "dependent": 0,
              "still_image": 0,
              "multilayer": 0
            },
            "tags": {
              "handler_name": "VideoHandler",
              "vendor_id": "FFMP",
              "encoder": "Lavc62.28.102 prores_ks"
            }
          },
          {
            "index": 1,
            "codec_name": "pcm_s16le",
            "codec_long_name": "PCM signed 16-bit little-endian",
            "codec_type": "audio",
            "codec_tag_string": "sowt",
            "codec_tag": "0x74776f73",
            "sample_fmt": "s16",
            "sample_rate": "48000",
            "channels": 1,
            "channel_layout": "mono",
            "bits_per_sample": 16,
            "initial_padding": 0,
            "id": "0x2",
            "r_frame_rate": "0/0",
            "avg_frame_rate": "0/0",
            "time_base": "1/48000",
            "start_pts": 0,
            "start_time": "0.000000",
            "duration_ts": 48000,
            "duration": "1.000000",
            "bit_rate": "768000",
            "nb_frames": "48000",
            "disposition": {
              "default": 1,
              "dub": 0,
              "original": 0,
              "comment": 0,
              "lyrics": 0,
              "karaoke": 0,
              "forced": 0,
              "hearing_impaired": 0,
              "visual_impaired": 0,
              "clean_effects": 0,
              "attached_pic": 0,
              "timed_thumbnails": 0,
              "non_diegetic": 0,
              "captions": 0,
              "descriptions": 0,
              "metadata": 0,
              "dependent": 0,
              "still_image": 0,
              "multilayer": 0
            },
            "tags": {
              "handler_name": "SoundHandler",
              "vendor_id": "[0][0][0][0]"
            }
          }
        ],
        "format": {
          "filename": "assets/source-prores422.mov",
          "nb_streams": 2,
          "nb_programs": 0,
          "nb_stream_groups": 0,
          "format_name": "mov,mp4,m4a,3gp,3g2,mj2",
          "format_long_name": "QuickTime / MOV",
          "start_time": "0.000000",
          "duration": "1.000000",
          "size": "1025901",
          "bit_rate": "8207208",
          "probe_score": 100,
          "tags": {
            "major_brand": "qt  ",
            "minor_version": "512",
            "compatible_brands": "qt  ",
            "encoder": "Lavf62.12.102"
          }
        }
      }
    },
    {
      "id": "prores4444-yuva444p12le-mov",
      "file": "source-prores4444-alpha.mov",
      "argv": [
        "ffmpeg",
        "-hide_banner",
        "-loglevel",
        "error",
        "-y",
        "-f",
        "lavfi",
        "-i",
        "color=c=red@0.55:size=320x180:rate=30:duration=1,format=yuva444p10le",
        "-c:v",
        "prores_ks",
        "-profile:v",
        "4",
        "-pix_fmt",
        "yuva444p10le",
        "-an"
      ],
      "license": "repo-authored synthetic CC0-1.0",
      "relative_path": "assets/source-prores4444-alpha.mov",
      "source_sha256": "b7c665d956a6cdb5d6442ca4ede18ded56a9c66069ad7726ddb935a6e6ba0f18",
      "byte_length": 40222,
      "container_and_stream_metadata": {
        "streams": [
          {
            "index": 0,
            "codec_name": "prores",
            "codec_long_name": "Apple ProRes (iCodec Pro)",
            "profile": "4444",
            "codec_type": "video",
            "codec_tag_string": "ap4h",
            "codec_tag": "0x68347061",
            "width": 320,
            "height": 180,
            "coded_width": 320,
            "coded_height": 180,
            "has_b_frames": 0,
            "sample_aspect_ratio": "1:1",
            "display_aspect_ratio": "16:9",
            "pix_fmt": "yuva444p12le",
            "level": -99,
            "color_range": "tv",
            "field_order": "progressive",
            "id": "0x1",
            "r_frame_rate": "30/1",
            "avg_frame_rate": "30/1",
            "time_base": "1/15360",
            "start_pts": 0,
            "start_time": "0.000000",
            "duration_ts": 15360,
            "duration": "1.000000",
            "bit_rate": "315840",
            "bits_per_raw_sample": "12",
            "nb_frames": "30",
            "disposition": {
              "default": 1,
              "dub": 0,
              "original": 0,
              "comment": 0,
              "lyrics": 0,
              "karaoke": 0,
              "forced": 0,
              "hearing_impaired": 0,
              "visual_impaired": 0,
              "clean_effects": 0,
              "attached_pic": 0,
              "timed_thumbnails": 0,
              "non_diegetic": 0,
              "captions": 0,
              "descriptions": 0,
              "metadata": 0,
              "dependent": 0,
              "still_image": 0,
              "multilayer": 0
            },
            "tags": {
              "handler_name": "VideoHandler",
              "vendor_id": "FFMP",
              "encoder": "Lavc62.28.102 prores_ks"
            }
          }
        ],
        "format": {
          "filename": "assets/source-prores4444-alpha.mov",
          "nb_streams": 1,
          "nb_programs": 0,
          "nb_stream_groups": 0,
          "format_name": "mov,mp4,m4a,3gp,3g2,mj2",
          "format_long_name": "QuickTime / MOV",
          "start_time": "0.000000",
          "duration": "1.000000",
          "size": "40222",
          "bit_rate": "321776",
          "probe_score": 100,
          "tags": {
            "major_brand": "qt  ",
            "minor_version": "512",
            "compatible_brands": "qt  ",
            "encoder": "Lavf62.12.102"
          }
        }
      }
    },
    {
      "id": "avc-all-intra-yuv420p-mp4",
      "file": "proxy-avc.mp4",
      "argv": [
        "ffmpeg",
        "-hide_banner",
        "-loglevel",
        "error",
        "-y",
        "-f",
        "lavfi",
        "-i",
        "testsrc2=size=320x180:rate=30:duration=2",
        "-c:v",
        "libx264",
        "-pix_fmt",
        "yuv420p",
        "-g",
        "1",
        "-an",
        "-movflags",
        "+faststart"
      ],
      "license": "repo-authored synthetic CC0-1.0",
      "relative_path": "assets/proxy-avc.mp4",
      "source_sha256": "d8319f3eef108cf9a31894235a2c7a54be29b34667db203c6ab6f9e0bac5c2c0",
      "byte_length": 223018,
      "container_and_stream_metadata": {
        "streams": [
          {
            "index": 0,
            "codec_name": "h264",
            "codec_long_name": "H.264 / AVC / MPEG-4 AVC / MPEG-4 part 10",
            "profile": "High",
            "codec_type": "video",
            "codec_tag_string": "avc1",
            "codec_tag": "0x31637661",
            "mime_codec_string": "avc1.64100d",
            "width": 320,
            "height": 180,
            "coded_width": 320,
            "coded_height": 180,
            "has_b_frames": 0,
            "sample_aspect_ratio": "1:1",
            "display_aspect_ratio": "16:9",
            "pix_fmt": "yuv420p",
            "level": 13,
            "chroma_location": "left",
            "field_order": "progressive",
            "is_avc": "true",
            "nal_length_size": "4",
            "id": "0x1",
            "r_frame_rate": "30/1",
            "avg_frame_rate": "30/1",
            "time_base": "1/15360",
            "start_pts": 0,
            "start_time": "0.000000",
            "duration_ts": 30720,
            "duration": "2.000000",
            "bit_rate": "887772",
            "bits_per_raw_sample": "8",
            "nb_frames": "60",
            "extradata_size": 42,
            "disposition": {
              "default": 1,
              "dub": 0,
              "original": 0,
              "comment": 0,
              "lyrics": 0,
              "karaoke": 0,
              "forced": 0,
              "hearing_impaired": 0,
              "visual_impaired": 0,
              "clean_effects": 0,
              "attached_pic": 0,
              "timed_thumbnails": 0,
              "non_diegetic": 0,
              "captions": 0,
              "descriptions": 0,
              "metadata": 0,
              "dependent": 0,
              "still_image": 0,
              "multilayer": 0
            },
            "tags": {
              "language": "und",
              "handler_name": "VideoHandler",
              "encoder": "Lavc62.28.102 libx264"
            }
          }
        ],
        "format": {
          "filename": "assets/proxy-avc.mp4",
          "nb_streams": 1,
          "nb_programs": 0,
          "nb_stream_groups": 0,
          "format_name": "mov,mp4,m4a,3gp,3g2,mj2",
          "format_long_name": "QuickTime / MOV",
          "start_time": "0.000000",
          "duration": "2.000000",
          "size": "223018",
          "bit_rate": "892072",
          "probe_score": 100,
          "tags": {
            "major_brand": "isom",
            "minor_version": "512",
            "compatible_brands": "isomiso2avc1mp41",
            "encoder": "Lavf62.12.102"
          }
        }
      }
    },
    {
      "id": "vp9-yuva420p-webm",
      "file": "proxy-vp9-alpha.webm",
      "argv": [
        "ffmpeg",
        "-hide_banner",
        "-loglevel",
        "error",
        "-y",
        "-f",
        "lavfi",
        "-i",
        "color=c=lime@0.5:size=320x180:rate=30:duration=2,format=yuva420p",
        "-c:v",
        "libvpx-vp9",
        "-pix_fmt",
        "yuva420p",
        "-lossless",
        "1",
        "-an"
      ],
      "license": "repo-authored synthetic CC0-1.0",
      "relative_path": "assets/proxy-vp9-alpha.webm",
      "source_sha256": "c8466c6193eda941fc160da27d5101d17c5a8868de24b1ca916858189a557e83",
      "byte_length": 3847,
      "container_and_stream_metadata": {
        "streams": [
          {
            "index": 0,
            "codec_name": "vp9",
            "codec_long_name": "Google VP9",
            "profile": "Profile 0",
            "codec_type": "video",
            "codec_tag_string": "[0][0][0][0]",
            "codec_tag": "0x0000",
            "mime_codec_string": "vp09.00.11.08",
            "width": 320,
            "height": 180,
            "coded_width": 320,
            "coded_height": 180,
            "has_b_frames": 0,
            "sample_aspect_ratio": "1:1",
            "display_aspect_ratio": "16:9",
            "pix_fmt": "yuv420p",
            "level": -99,
            "color_range": "tv",
            "field_order": "progressive",
            "r_frame_rate": "30/1",
            "avg_frame_rate": "30/1",
            "time_base": "1/1000",
            "start_pts": 0,
            "start_time": "0.000000",
            "disposition": {
              "default": 0,
              "dub": 0,
              "original": 0,
              "comment": 0,
              "lyrics": 0,
              "karaoke": 0,
              "forced": 0,
              "hearing_impaired": 0,
              "visual_impaired": 0,
              "clean_effects": 0,
              "attached_pic": 0,
              "timed_thumbnails": 0,
              "non_diegetic": 0,
              "captions": 0,
              "descriptions": 0,
              "metadata": 0,
              "dependent": 0,
              "still_image": 0,
              "multilayer": 0
            },
            "tags": {
              "alpha_mode": "1",
              "ENCODER": "Lavc62.28.102 libvpx-vp9",
              "DURATION": "00:00:02.000000000"
            }
          }
        ],
        "format": {
          "filename": "assets/proxy-vp9-alpha.webm",
          "nb_streams": 1,
          "nb_programs": 0,
          "nb_stream_groups": 0,
          "format_name": "matroska,webm",
          "format_long_name": "Matroska / WebM",
          "start_time": "0.000000",
          "duration": "2.000000",
          "size": "3847",
          "bit_rate": "15388",
          "probe_score": 100,
          "tags": {
            "ENCODER": "Lavf62.12.102"
          }
        }
      }
    },
    {
      "id": "pcm-s16le-48khz-stereo-wav",
      "file": "audio-pcm.wav",
      "argv": [
        "ffmpeg",
        "-hide_banner",
        "-loglevel",
        "error",
        "-y",
        "-f",
        "lavfi",
        "-i",
        "sine=frequency=440:sample_rate=48000:duration=1",
        "-filter_complex",
        "[0:a]pan=stereo|c0=c0|c1=0.5*c0[a]",
        "-map",
        "[a]",
        "-c:a",
        "pcm_s16le"
      ],
      "license": "repo-authored synthetic CC0-1.0",
      "relative_path": "assets/audio-pcm.wav",
      "source_sha256": "e6ea7d78b6ea0581e67975abd7fef9d5d83987d6f097b7f812946cfd35f7eb57",
      "byte_length": 192078,
      "container_and_stream_metadata": {
        "streams": [
          {
            "index": 0,
            "codec_name": "pcm_s16le",
            "codec_long_name": "PCM signed 16-bit little-endian",
            "codec_type": "audio",
            "codec_tag_string": "[1][0][0][0]",
            "codec_tag": "0x0001",
            "sample_fmt": "s16",
            "sample_rate": "48000",
            "channels": 2,
            "bits_per_sample": 16,
            "initial_padding": 0,
            "r_frame_rate": "0/0",
            "avg_frame_rate": "0/0",
            "time_base": "1/48000",
            "duration_ts": 48000,
            "duration": "1.000000",
            "bit_rate": "1536000",
            "disposition": {
              "default": 0,
              "dub": 0,
              "original": 0,
              "comment": 0,
              "lyrics": 0,
              "karaoke": 0,
              "forced": 0,
              "hearing_impaired": 0,
              "visual_impaired": 0,
              "clean_effects": 0,
              "attached_pic": 0,
              "timed_thumbnails": 0,
              "non_diegetic": 0,
              "captions": 0,
              "descriptions": 0,
              "metadata": 0,
              "dependent": 0,
              "still_image": 0,
              "multilayer": 0
            }
          }
        ],
        "format": {
          "filename": "assets/audio-pcm.wav",
          "nb_streams": 1,
          "nb_programs": 0,
          "nb_stream_groups": 0,
          "format_name": "wav",
          "format_long_name": "WAV / WAVE (Waveform Audio)",
          "duration": "1.000000",
          "size": "192078",
          "bit_rate": "1536624",
          "probe_score": 99,
          "tags": {
            "encoder": "Lavf62.12.102"
          }
        }
      }
    },
    {
      "id": "aac-lc-48khz-stereo-m4a",
      "file": "audio-aac.m4a",
      "argv": [
        "ffmpeg",
        "-hide_banner",
        "-loglevel",
        "error",
        "-y",
        "-f",
        "lavfi",
        "-i",
        "sine=frequency=550:sample_rate=48000:duration=1",
        "-ac",
        "2",
        "-c:a",
        "aac",
        "-profile:a",
        "aac_low"
      ],
      "license": "repo-authored synthetic CC0-1.0",
      "relative_path": "assets/audio-aac.m4a",
      "source_sha256": "071ad4e97f3f237236a4a3d3b967db82a4273f56cb600555c6b405b843ec55d5",
      "byte_length": 17366,
      "container_and_stream_metadata": {
        "streams": [
          {
            "index": 0,
            "codec_name": "aac",
            "codec_long_name": "AAC (Advanced Audio Coding)",
            "profile": "LC",
            "codec_type": "audio",
            "codec_tag_string": "mp4a",
            "codec_tag": "0x6134706d",
            "mime_codec_string": "mp4a.40.2",
            "sample_fmt": "fltp",
            "sample_rate": "48000",
            "channels": 2,
            "channel_layout": "stereo",
            "bits_per_sample": 0,
            "initial_padding": 0,
            "id": "0x1",
            "r_frame_rate": "0/0",
            "avg_frame_rate": "0/0",
            "time_base": "1/48000",
            "start_pts": 0,
            "start_time": "0.000000",
            "duration_ts": 48000,
            "duration": "1.000000",
            "bit_rate": "128201",
            "nb_frames": "48",
            "extradata_size": 5,
            "disposition": {
              "default": 1,
              "dub": 0,
              "original": 0,
              "comment": 0,
              "lyrics": 0,
              "karaoke": 0,
              "forced": 0,
              "hearing_impaired": 0,
              "visual_impaired": 0,
              "clean_effects": 0,
              "attached_pic": 0,
              "timed_thumbnails": 0,
              "non_diegetic": 0,
              "captions": 0,
              "descriptions": 0,
              "metadata": 0,
              "dependent": 0,
              "still_image": 0,
              "multilayer": 0
            },
            "tags": {
              "language": "und",
              "handler_name": "SoundHandler"
            }
          }
        ],
        "format": {
          "filename": "assets/audio-aac.m4a",
          "nb_streams": 1,
          "nb_programs": 0,
          "nb_stream_groups": 0,
          "format_name": "mov,mp4,m4a,3gp,3g2,mj2",
          "format_long_name": "QuickTime / MOV",
          "start_time": "0.000000",
          "duration": "1.000000",
          "size": "17366",
          "bit_rate": "138928",
          "probe_score": 100,
          "tags": {
            "major_brand": "M4A ",
            "minor_version": "512",
            "compatible_brands": "M4A isomiso2",
            "encoder": "Lavf62.12.102"
          }
        }
      }
    },
    {
      "id": "mp3-48khz-stereo",
      "file": "audio.mp3",
      "argv": [
        "ffmpeg",
        "-hide_banner",
        "-loglevel",
        "error",
        "-y",
        "-f",
        "lavfi",
        "-i",
        "sine=frequency=660:sample_rate=48000:duration=1",
        "-ac",
        "2",
        "-c:a",
        "libmp3lame",
        "-b:a",
        "128k"
      ],
      "license": "repo-authored synthetic CC0-1.0",
      "relative_path": "assets/audio.mp3",
      "source_sha256": "60837897557b85c306bf4e1c9107a5ec77e13dece80c30c081b149719bb93b32",
      "byte_length": 16941,
      "container_and_stream_metadata": {
        "streams": [
          {
            "index": 0,
            "codec_name": "mp3",
            "codec_long_name": "MP3 (MPEG audio layer 3)",
            "codec_type": "audio",
            "codec_tag_string": "[0][0][0][0]",
            "codec_tag": "0x0000",
            "mime_codec_string": "mp4a.40.34",
            "sample_fmt": "fltp",
            "sample_rate": "48000",
            "channels": 2,
            "channel_layout": "stereo",
            "bits_per_sample": 0,
            "initial_padding": 0,
            "r_frame_rate": "0/0",
            "avg_frame_rate": "0/0",
            "time_base": "1/14112000",
            "start_pts": 324870,
            "start_time": "0.023021",
            "duration_ts": 14112000,
            "duration": "1.000000",
            "bit_rate": "128000",
            "disposition": {
              "default": 0,
              "dub": 0,
              "original": 0,
              "comment": 0,
              "lyrics": 0,
              "karaoke": 0,
              "forced": 0,
              "hearing_impaired": 0,
              "visual_impaired": 0,
              "clean_effects": 0,
              "attached_pic": 0,
              "timed_thumbnails": 0,
              "non_diegetic": 0,
              "captions": 0,
              "descriptions": 0,
              "metadata": 0,
              "dependent": 0,
              "still_image": 0,
              "multilayer": 0
            },
            "tags": {
              "encoder": "Lavc62.28"
            }
          }
        ],
        "format": {
          "filename": "assets/audio.mp3",
          "nb_streams": 1,
          "nb_programs": 0,
          "nb_stream_groups": 0,
          "format_name": "mp3",
          "format_long_name": "MP2/3 (MPEG audio layer 2/3)",
          "start_time": "0.023021",
          "duration": "1.000000",
          "size": "16941",
          "bit_rate": "135528",
          "probe_score": 51,
          "tags": {
            "encoder": "Lavf62.12.102"
          }
        }
      }
    },
    {
      "id": "deterministically-truncated-video",
      "file": "corrupt-truncated.mp4",
      "argv": ["truncate", "proxy-avc.mp4", "64-bytes"],
      "license": "repo-authored synthetic CC0-1.0",
      "derivedFrom": "avc-all-intra-yuv420p-mp4",
      "relative_path": "assets/corrupt-truncated.mp4",
      "source_sha256": "41ab0f6acd5680e8e02264fd9a94f6944bbb7ffa55118c3f5577998c35080254",
      "byte_length": 64,
      "container_and_stream_metadata": {
        "streams": [],
        "format": {
          "filename": "assets/corrupt-truncated.mp4",
          "nb_streams": 0,
          "nb_programs": 0,
          "nb_stream_groups": 0,
          "format_name": "mov,mp4,m4a,3gp,3g2,mj2",
          "format_long_name": "QuickTime / MOV",
          "size": "64",
          "probe_score": 100,
          "tags": {
            "major_brand": "isom",
            "minor_version": "512",
            "compatible_brands": "isomiso2avc1mp41"
          }
        }
      }
    },
    {
      "id": "deliberately-unsupported-audio",
      "file": "unsupported-audio.bin",
      "argv": ["literal-bytes", "VEAN_SYNTHETIC_UNSUPPORTED_AUDIO"],
      "license": "repo-authored synthetic CC0-1.0",
      "relative_path": "assets/unsupported-audio.bin",
      "source_sha256": "cd5286572ee177e60a101ab40ccc388ded37090703b270c6145d44621c6c736f",
      "byte_length": 33,
      "container_and_stream_metadata": {
        "attributed_probe_failure": "assets/unsupported-audio.bin: Invalid data found when processing input"
      }
    },
    {
      "id": "forced-alpha-probe-failure",
      "file": "alpha-probe-failure.bin",
      "argv": ["literal-bytes", "VEAN_SYNTHETIC_ALPHA_PROBE_FAILURE"],
      "license": "repo-authored synthetic CC0-1.0",
      "relative_path": "assets/alpha-probe-failure.bin",
      "source_sha256": "702ed6f75c516b82c5109be52ccad578c781805bad60ca1a7e1a772f9ad06c57",
      "byte_length": 35,
      "container_and_stream_metadata": {
        "attributed_probe_failure": "assets/alpha-probe-failure.bin: Invalid data found when processing input"
      }
    }
  ]
}
